<svg width="24" height="24" viewBox="0 0 24 24" fill="none" xmlns="http://www.w3.org/2000/svg">
<path fill-rule="evenodd" clip-rule="evenodd" d="M15 9.5C15 11.9853 12.9853 14 10.5 14C8.01472 14 6 11.9853 6 9.5C6 7.01472 8.01472 5 10.5 5C12.9853 5 15 7.01472 15 9.5ZM13.7223 15.1464C12.7725 15.6895 11.6725 16 10.5 16C6.91015 16 4 13.0899 4 9.5C4 5.91015 6.91015 3 10.5 3C14.0899 3 17 5.91015 17 9.5C17 11.1963 16.3502 12.7409 15.2859 13.8984L19.6744 19.1284C20.0294 19.5514 19.9742 20.1822 19.5511 20.5372C19.1281 20.8922 18.4973 20.837 18.1423 20.4139L13.7223 15.1464Z" fill="#999"/>
</svg>
